<mxfile host="app.diagrams.net" modified="2024-05-29T03:09:34.171Z" agent="Mozilla/5.0 (Windows NT 10.0; Win64; x64) AppleWebKit/537.36 (KHTML, like Gecko) Chrome/125.0.0.0 Safari/537.36 Edg/125.0.0.0" etag="4F7yuPn24G405qUeAcfB" version="24.4.9" type="github">
  <diagram name="第 1 页" id="SoRn_m8bG14cru3M2dKM">
    <mxGraphModel dx="2213" dy="785" grid="1" gridSize="10" guides="1" tooltips="1" connect="1" arrows="1" fold="1" page="1" pageScale="1" pageWidth="827" pageHeight="1169" math="0" shadow="0">
      <root>
        <mxCell id="0" />
        <mxCell id="1" parent="0" />
        <mxCell id="IC_BZYuys4O7xrY4rRnc-1" value="" style="edgeStyle=orthogonalEdgeStyle;rounded=0;orthogonalLoop=1;jettySize=auto;html=1;" edge="1" parent="1" source="IC_BZYuys4O7xrY4rRnc-2">
          <mxGeometry relative="1" as="geometry">
            <mxPoint x="170" y="255" as="targetPoint" />
          </mxGeometry>
        </mxCell>
        <mxCell id="IC_BZYuys4O7xrY4rRnc-2" value="&lt;font style=&quot;font-size: 14px;&quot;&gt;A&lt;/font&gt;&lt;span class=&quot;eusoft-eudic-chrome-extension-translate-content&quot;&gt;&lt;br&gt;&lt;/span&gt;" style="text;html=1;align=center;verticalAlign=middle;whiteSpace=wrap;rounded=0;" vertex="1" parent="1">
          <mxGeometry x="20" y="240" width="60" height="30" as="geometry" />
        </mxCell>
        <mxCell id="IC_BZYuys4O7xrY4rRnc-3" value="&lt;font style=&quot;font-size: 14px;&quot;&gt;B&lt;/font&gt;&lt;span class=&quot;eusoft-eudic-chrome-extension-translate-content&quot;&gt;&lt;br&gt;&lt;/span&gt;" style="text;html=1;align=center;verticalAlign=middle;whiteSpace=wrap;rounded=0;" vertex="1" parent="1">
          <mxGeometry x="140" y="200" width="60" height="30" as="geometry" />
        </mxCell>
        <mxCell id="IC_BZYuys4O7xrY4rRnc-4" value="" style="endArrow=none;html=1;rounded=0;entryX=0.5;entryY=1;entryDx=0;entryDy=0;" edge="1" parent="1" target="IC_BZYuys4O7xrY4rRnc-3">
          <mxGeometry width="50" height="50" relative="1" as="geometry">
            <mxPoint x="170" y="250" as="sourcePoint" />
            <mxPoint x="440" y="280" as="targetPoint" />
          </mxGeometry>
        </mxCell>
        <mxCell id="IC_BZYuys4O7xrY4rRnc-5" value="" style="endArrow=classic;html=1;rounded=0;" edge="1" parent="1">
          <mxGeometry width="50" height="50" relative="1" as="geometry">
            <mxPoint x="120" y="120" as="sourcePoint" />
            <mxPoint x="120" y="160" as="targetPoint" />
          </mxGeometry>
        </mxCell>
        <mxCell id="IC_BZYuys4O7xrY4rRnc-6" value="" style="edgeStyle=orthogonalEdgeStyle;rounded=0;orthogonalLoop=1;jettySize=auto;html=1;" edge="1" parent="1">
          <mxGeometry relative="1" as="geometry">
            <mxPoint x="290" y="215" as="targetPoint" />
            <mxPoint x="200" y="215" as="sourcePoint" />
          </mxGeometry>
        </mxCell>
        <mxCell id="IC_BZYuys4O7xrY4rRnc-7" value="" style="endArrow=none;html=1;rounded=0;entryX=0.5;entryY=1;entryDx=0;entryDy=0;" edge="1" parent="1">
          <mxGeometry width="50" height="50" relative="1" as="geometry">
            <mxPoint x="290" y="210" as="sourcePoint" />
            <mxPoint x="290" y="190" as="targetPoint" />
          </mxGeometry>
        </mxCell>
        <mxCell id="IC_BZYuys4O7xrY4rRnc-8" value="&lt;font style=&quot;font-size: 14px;&quot;&gt;C&lt;/font&gt;&lt;span class=&quot;eusoft-eudic-chrome-extension-translate-content&quot;&gt;&lt;br&gt;&lt;/span&gt;" style="text;html=1;align=center;verticalAlign=middle;whiteSpace=wrap;rounded=0;" vertex="1" parent="1">
          <mxGeometry x="260" y="160" width="60" height="30" as="geometry" />
        </mxCell>
        <mxCell id="IC_BZYuys4O7xrY4rRnc-9" value="" style="edgeStyle=orthogonalEdgeStyle;rounded=0;orthogonalLoop=1;jettySize=auto;html=1;entryX=0;entryY=0.5;entryDx=0;entryDy=0;" edge="1" parent="1" target="IC_BZYuys4O7xrY4rRnc-11">
          <mxGeometry relative="1" as="geometry">
            <mxPoint x="410" y="175" as="targetPoint" />
            <mxPoint x="320" y="175" as="sourcePoint" />
          </mxGeometry>
        </mxCell>
        <mxCell id="IC_BZYuys4O7xrY4rRnc-10" value="" style="edgeStyle=orthogonalEdgeStyle;rounded=0;orthogonalLoop=1;jettySize=auto;html=1;" edge="1" parent="1" source="IC_BZYuys4O7xrY4rRnc-11" target="IC_BZYuys4O7xrY4rRnc-12">
          <mxGeometry relative="1" as="geometry" />
        </mxCell>
        <mxCell id="IC_BZYuys4O7xrY4rRnc-11" value="&lt;font style=&quot;font-size: 14px;&quot;&gt;syscall&lt;/font&gt;&lt;span class=&quot;eusoft-eudic-chrome-extension-translate-content&quot;&gt;&lt;br&gt;&lt;/span&gt;" style="text;html=1;align=center;verticalAlign=middle;whiteSpace=wrap;rounded=0;" vertex="1" parent="1">
          <mxGeometry x="390" y="160" width="60" height="30" as="geometry" />
        </mxCell>
        <mxCell id="IC_BZYuys4O7xrY4rRnc-12" value="&lt;font style=&quot;font-size: 14px;&quot;&gt;block&lt;/font&gt;&lt;span class=&quot;eusoft-eudic-chrome-extension-translate-content&quot;&gt;&lt;br&gt;&lt;/span&gt;" style="text;html=1;align=center;verticalAlign=middle;whiteSpace=wrap;rounded=0;" vertex="1" parent="1">
          <mxGeometry x="390" y="320" width="60" height="30" as="geometry" />
        </mxCell>
        <mxCell id="IC_BZYuys4O7xrY4rRnc-13" value="" style="endArrow=classic;html=1;rounded=0;" edge="1" parent="1">
          <mxGeometry width="50" height="50" relative="1" as="geometry">
            <mxPoint x="200" y="120" as="sourcePoint" />
            <mxPoint x="200" y="160" as="targetPoint" />
          </mxGeometry>
        </mxCell>
        <mxCell id="IC_BZYuys4O7xrY4rRnc-14" value="" style="endArrow=classic;html=1;rounded=0;" edge="1" parent="1">
          <mxGeometry width="50" height="50" relative="1" as="geometry">
            <mxPoint x="280" y="120" as="sourcePoint" />
            <mxPoint x="280" y="160" as="targetPoint" />
          </mxGeometry>
        </mxCell>
        <mxCell id="IC_BZYuys4O7xrY4rRnc-15" value="" style="endArrow=classic;html=1;rounded=0;" edge="1" parent="1">
          <mxGeometry width="50" height="50" relative="1" as="geometry">
            <mxPoint x="360" y="120" as="sourcePoint" />
            <mxPoint x="360" y="160" as="targetPoint" />
          </mxGeometry>
        </mxCell>
        <mxCell id="IC_BZYuys4O7xrY4rRnc-16" value="" style="endArrow=classic;html=1;rounded=0;" edge="1" parent="1">
          <mxGeometry width="50" height="50" relative="1" as="geometry">
            <mxPoint x="680" y="120" as="sourcePoint" />
            <mxPoint x="680" y="160" as="targetPoint" />
          </mxGeometry>
        </mxCell>
        <mxCell id="IC_BZYuys4O7xrY4rRnc-17" value="" style="endArrow=none;dashed=1;html=1;dashPattern=1 3;strokeWidth=2;rounded=0;entryX=0;entryY=0.5;entryDx=0;entryDy=0;exitX=1;exitY=0.5;exitDx=0;exitDy=0;" edge="1" parent="1" source="IC_BZYuys4O7xrY4rRnc-12" target="IC_BZYuys4O7xrY4rRnc-19">
          <mxGeometry width="50" height="50" relative="1" as="geometry">
            <mxPoint x="400" y="270" as="sourcePoint" />
            <mxPoint x="450" y="220" as="targetPoint" />
          </mxGeometry>
        </mxCell>
        <mxCell id="IC_BZYuys4O7xrY4rRnc-18" value="" style="edgeStyle=orthogonalEdgeStyle;rounded=0;orthogonalLoop=1;jettySize=auto;html=1;" edge="1" parent="1" source="IC_BZYuys4O7xrY4rRnc-19">
          <mxGeometry relative="1" as="geometry">
            <mxPoint x="700" y="175" as="targetPoint" />
            <Array as="points">
              <mxPoint x="630" y="175" />
            </Array>
          </mxGeometry>
        </mxCell>
        <mxCell id="IC_BZYuys4O7xrY4rRnc-19" value="&lt;font style=&quot;font-size: 14px;&quot;&gt;interrupt&lt;/font&gt;&lt;span class=&quot;eusoft-eudic-chrome-extension-translate-content&quot;&gt;&lt;br&gt;&lt;/span&gt;" style="text;html=1;align=center;verticalAlign=middle;whiteSpace=wrap;rounded=0;" vertex="1" parent="1">
          <mxGeometry x="600" y="320" width="60" height="30" as="geometry" />
        </mxCell>
        <mxCell id="IC_BZYuys4O7xrY4rRnc-20" value="" style="endArrow=classic;html=1;rounded=0;" edge="1" parent="1">
          <mxGeometry width="50" height="50" relative="1" as="geometry">
            <mxPoint x="760" y="120" as="sourcePoint" />
            <mxPoint x="760" y="160" as="targetPoint" />
          </mxGeometry>
        </mxCell>
        <mxCell id="IC_BZYuys4O7xrY4rRnc-21" value="" style="endArrow=classic;html=1;rounded=0;" edge="1" parent="1">
          <mxGeometry width="50" height="50" relative="1" as="geometry">
            <mxPoint x="840" y="120" as="sourcePoint" />
            <mxPoint x="840" y="160" as="targetPoint" />
          </mxGeometry>
        </mxCell>
        <mxCell id="IC_BZYuys4O7xrY4rRnc-22" value="" style="endArrow=none;html=1;rounded=0;entryX=0.5;entryY=1;entryDx=0;entryDy=0;" edge="1" parent="1">
          <mxGeometry width="50" height="50" relative="1" as="geometry">
            <mxPoint x="700" y="210" as="sourcePoint" />
            <mxPoint x="700" y="180" as="targetPoint" />
          </mxGeometry>
        </mxCell>
        <mxCell id="IC_BZYuys4O7xrY4rRnc-23" value="" style="edgeStyle=orthogonalEdgeStyle;rounded=0;orthogonalLoop=1;jettySize=auto;html=1;" edge="1" parent="1">
          <mxGeometry relative="1" as="geometry">
            <mxPoint x="790" y="214.66" as="targetPoint" />
            <mxPoint x="700" y="214.66" as="sourcePoint" />
          </mxGeometry>
        </mxCell>
        <mxCell id="IC_BZYuys4O7xrY4rRnc-24" value="" style="endArrow=none;html=1;rounded=0;entryX=0.5;entryY=1;entryDx=0;entryDy=0;" edge="1" parent="1">
          <mxGeometry width="50" height="50" relative="1" as="geometry">
            <mxPoint x="790" y="250" as="sourcePoint" />
            <mxPoint x="790" y="220" as="targetPoint" />
          </mxGeometry>
        </mxCell>
        <mxCell id="IC_BZYuys4O7xrY4rRnc-25" value="" style="edgeStyle=orthogonalEdgeStyle;rounded=0;orthogonalLoop=1;jettySize=auto;html=1;" edge="1" parent="1">
          <mxGeometry relative="1" as="geometry">
            <mxPoint x="850" y="255" as="targetPoint" />
            <mxPoint x="790" y="254.66" as="sourcePoint" />
          </mxGeometry>
        </mxCell>
        <mxCell id="IC_BZYuys4O7xrY4rRnc-26" value="" style="endArrow=classic;html=1;rounded=0;dashed=1;" edge="1" parent="1">
          <mxGeometry width="50" height="50" relative="1" as="geometry">
            <mxPoint x="520" y="120" as="sourcePoint" />
            <mxPoint x="520" y="160" as="targetPoint" />
          </mxGeometry>
        </mxCell>
        <mxCell id="IC_BZYuys4O7xrY4rRnc-27" value="" style="endArrow=classic;html=1;rounded=0;dashed=1;" edge="1" parent="1">
          <mxGeometry width="50" height="50" relative="1" as="geometry">
            <mxPoint x="440" y="120" as="sourcePoint" />
            <mxPoint x="440" y="160" as="targetPoint" />
          </mxGeometry>
        </mxCell>
        <mxCell id="IC_BZYuys4O7xrY4rRnc-28" value="" style="endArrow=classic;html=1;rounded=0;dashed=1;" edge="1" parent="1">
          <mxGeometry width="50" height="50" relative="1" as="geometry">
            <mxPoint x="600" y="120" as="sourcePoint" />
            <mxPoint x="600" y="160" as="targetPoint" />
          </mxGeometry>
        </mxCell>
        <mxCell id="IC_BZYuys4O7xrY4rRnc-29" value="&lt;font style=&quot;font-size: 14px;&quot;&gt;A&lt;/font&gt;&lt;span class=&quot;eusoft-eudic-chrome-extension-translate-content&quot;&gt;&lt;br&gt;&lt;/span&gt;&lt;div data-eusoft-did-translate-attribute-en=&quot;1&quot;&gt;&lt;font style=&quot;font-size: 14px;&quot;&gt;&amp;lt;event&amp;gt;:100&lt;/font&gt;&lt;span class=&quot;eusoft-eudic-chrome-extension-translate-content&quot;&gt;&lt;/span&gt;&lt;/div&gt;" style="text;html=1;align=center;verticalAlign=middle;whiteSpace=wrap;rounded=0;" vertex="1" parent="1">
          <mxGeometry x="70" y="90" width="90" height="30" as="geometry" />
        </mxCell>
        <mxCell id="IC_BZYuys4O7xrY4rRnc-30" value="&lt;div&gt;&lt;font style=&quot;font-size: 14px;&quot;&gt;B&lt;/font&gt;&lt;/div&gt;&lt;font style=&quot;font-size: 14px;&quot;&gt;A&lt;/font&gt;&lt;span class=&quot;eusoft-eudic-chrome-extension-translate-content&quot;&gt;&lt;br&gt;&lt;/span&gt;&lt;div data-eusoft-did-translate-attribute-en=&quot;1&quot;&gt;&lt;font style=&quot;font-size: 14px;&quot;&gt;&amp;lt;event&amp;gt;:100&lt;/font&gt;&lt;span class=&quot;eusoft-eudic-chrome-extension-translate-content&quot;&gt;&lt;/span&gt;&lt;/div&gt;" style="text;html=1;align=center;verticalAlign=middle;whiteSpace=wrap;rounded=0;" vertex="1" parent="1">
          <mxGeometry x="160" y="70" width="90" height="50" as="geometry" />
        </mxCell>
        <mxCell id="IC_BZYuys4O7xrY4rRnc-31" value="&lt;div&gt;&lt;font style=&quot;font-size: 14px;&quot;&gt;B&lt;/font&gt;&lt;/div&gt;&lt;font style=&quot;font-size: 14px;&quot;&gt;A&lt;/font&gt;&lt;span class=&quot;eusoft-eudic-chrome-extension-translate-content&quot;&gt;&lt;br&gt;&lt;/span&gt;&lt;div data-eusoft-did-translate-attribute-en=&quot;1&quot;&gt;&lt;font style=&quot;font-size: 14px;&quot;&gt;&amp;lt;event&amp;gt;:100&lt;/font&gt;&lt;span class=&quot;eusoft-eudic-chrome-extension-translate-content&quot;&gt;&lt;/span&gt;&lt;/div&gt;" style="text;html=1;align=center;verticalAlign=middle;whiteSpace=wrap;rounded=0;" vertex="1" parent="1">
          <mxGeometry x="240" y="70" width="90" height="50" as="geometry" />
        </mxCell>
        <mxCell id="IC_BZYuys4O7xrY4rRnc-32" value="&lt;div&gt;&lt;span style=&quot;font-size: 14px; background-color: initial;&quot;&gt;C&lt;/span&gt;&lt;br&gt;&lt;/div&gt;&lt;div&gt;&lt;font style=&quot;font-size: 14px;&quot;&gt;B&lt;/font&gt;&lt;/div&gt;&lt;font style=&quot;font-size: 14px;&quot;&gt;A&lt;/font&gt;&lt;span class=&quot;eusoft-eudic-chrome-extension-translate-content&quot;&gt;&lt;br&gt;&lt;/span&gt;&lt;div data-eusoft-did-translate-attribute-en=&quot;1&quot;&gt;&lt;font style=&quot;font-size: 14px;&quot;&gt;&amp;lt;event&amp;gt;:100&lt;/font&gt;&lt;span class=&quot;eusoft-eudic-chrome-extension-translate-content&quot;&gt;&lt;/span&gt;&lt;/div&gt;" style="text;html=1;align=center;verticalAlign=middle;whiteSpace=wrap;rounded=0;" vertex="1" parent="1">
          <mxGeometry x="320" y="50" width="90" height="70" as="geometry" />
        </mxCell>
        <mxCell id="IC_BZYuys4O7xrY4rRnc-33" value="&lt;div&gt;&lt;span style=&quot;font-size: 14px; background-color: initial;&quot;&gt;C&lt;/span&gt;&lt;br&gt;&lt;/div&gt;&lt;div&gt;&lt;font style=&quot;font-size: 14px;&quot;&gt;B&lt;/font&gt;&lt;/div&gt;&lt;font style=&quot;font-size: 14px;&quot;&gt;A&lt;/font&gt;&lt;span class=&quot;eusoft-eudic-chrome-extension-translate-content&quot;&gt;&lt;br&gt;&lt;/span&gt;&lt;div data-eusoft-did-translate-attribute-en=&quot;1&quot;&gt;&lt;font style=&quot;font-size: 14px;&quot;&gt;&amp;lt;event&amp;gt;:100&lt;/font&gt;&lt;span class=&quot;eusoft-eudic-chrome-extension-translate-content&quot;&gt;&lt;/span&gt;&lt;/div&gt;" style="text;html=1;align=center;verticalAlign=middle;whiteSpace=wrap;rounded=0;" vertex="1" parent="1">
          <mxGeometry x="630" y="50" width="90" height="70" as="geometry" />
        </mxCell>
        <mxCell id="IC_BZYuys4O7xrY4rRnc-34" value="&lt;div&gt;&lt;font style=&quot;font-size: 14px;&quot;&gt;B&lt;/font&gt;&lt;/div&gt;&lt;font style=&quot;font-size: 14px;&quot;&gt;A&lt;/font&gt;&lt;span class=&quot;eusoft-eudic-chrome-extension-translate-content&quot;&gt;&lt;br&gt;&lt;/span&gt;&lt;div data-eusoft-did-translate-attribute-en=&quot;1&quot;&gt;&lt;font style=&quot;font-size: 14px;&quot;&gt;&amp;lt;event&amp;gt;:100&lt;/font&gt;&lt;span class=&quot;eusoft-eudic-chrome-extension-translate-content&quot;&gt;&lt;/span&gt;&lt;/div&gt;" style="text;html=1;align=center;verticalAlign=middle;whiteSpace=wrap;rounded=0;" vertex="1" parent="1">
          <mxGeometry x="710" y="70" width="90" height="50" as="geometry" />
        </mxCell>
        <mxCell id="IC_BZYuys4O7xrY4rRnc-35" value="&lt;font style=&quot;font-size: 14px;&quot;&gt;A&lt;/font&gt;&lt;span class=&quot;eusoft-eudic-chrome-extension-translate-content&quot;&gt;&lt;br&gt;&lt;/span&gt;&lt;div data-eusoft-did-translate-attribute-en=&quot;1&quot;&gt;&lt;font style=&quot;font-size: 14px;&quot;&gt;&amp;lt;event&amp;gt;:100&lt;/font&gt;&lt;span class=&quot;eusoft-eudic-chrome-extension-translate-content&quot;&gt;&lt;/span&gt;&lt;/div&gt;" style="text;html=1;align=center;verticalAlign=middle;whiteSpace=wrap;rounded=0;" vertex="1" parent="1">
          <mxGeometry x="800" y="90" width="90" height="30" as="geometry" />
        </mxCell>
        <mxCell id="IC_BZYuys4O7xrY4rRnc-36" value="&lt;font data-eusoft-did-translate-attribute-en=&quot;1&quot; style=&quot;font-size: 14px;&quot;&gt;on-CPU&lt;/font&gt;" style="text;html=1;align=center;verticalAlign=middle;whiteSpace=wrap;rounded=0;" vertex="1" parent="1">
          <mxGeometry x="250" y="240" width="60" height="30" as="geometry" />
        </mxCell>
        <mxCell id="IC_BZYuys4O7xrY4rRnc-37" value="&lt;font data-eusoft-did-translate-attribute-en=&quot;1&quot; style=&quot;font-size: 14px;&quot;&gt;off-CPU&lt;/font&gt;" style="text;html=1;align=center;verticalAlign=middle;whiteSpace=wrap;rounded=0;" vertex="1" parent="1">
          <mxGeometry x="490" y="290" width="60" height="30" as="geometry" />
        </mxCell>
        <mxCell id="IC_BZYuys4O7xrY4rRnc-38" value="&lt;font data-eusoft-did-translate-attribute-en=&quot;1&quot; style=&quot;font-size: 14px;&quot;&gt;on-CPU&lt;/font&gt;" style="text;html=1;align=center;verticalAlign=middle;whiteSpace=wrap;rounded=0;" vertex="1" parent="1">
          <mxGeometry x="680" y="240" width="60" height="30" as="geometry" />
        </mxCell>
        <mxCell id="IC_BZYuys4O7xrY4rRnc-39" value="" style="endArrow=classic;html=1;rounded=0;dashed=1;" edge="1" parent="1">
          <mxGeometry width="50" height="50" relative="1" as="geometry">
            <mxPoint y="280" as="sourcePoint" />
            <mxPoint x="880" y="280" as="targetPoint" />
          </mxGeometry>
        </mxCell>
        <mxCell id="IC_BZYuys4O7xrY4rRnc-40" value="&lt;font data-eusoft-did-translate-attribute-en=&quot;1&quot; style=&quot;font-size: 14px;&quot;&gt;time&lt;/font&gt;" style="text;html=1;align=center;verticalAlign=middle;whiteSpace=wrap;rounded=0;" vertex="1" parent="1">
          <mxGeometry x="820" y="280" width="60" height="30" as="geometry" />
        </mxCell>
      </root>
    </mxGraphModel>
  </diagram>
</mxfile>
